<?xml version="1.0" standalone="no"?>
<!DOCTYPE svg PUBLIC "-//W3C//DTD SVG 1.1//EN" "http://www.w3.org/Graphics/SVG/1.1/DTD/svg11.dtd">
<svg xmlns="http://www.w3.org/2000/svg">
<metadata>Copyright (C) 2015 by original authors @ fontello.com</metadata>
<defs>
<font id="fontello" horiz-adv-x="1000" >
<font-face font-family="fontello" font-weight="400" font-stretch="normal" units-per-em="1000" ascent="850" descent="-150" />
<missing-glyph horiz-adv-x="1000" />
<glyph glyph-name="tumblr" unicode="&#xe800;" d="m780-60c-39-18-74-31-105-39-32-7-66-11-103-11-41 0-78 5-110 16-32 10-59 26-82 45-22 20-38 41-46 63-9 22-14 54-14 96v323h-100v130c36 12 66 29 92 51 25 22 46 48 61 79 16 30 26 70 32 117h129v-233h216v-144h-216v-236c0-53 3-87 9-103 5-15 16-27 31-36 20-12 43-18 69-18 46 0 92 15 137 45v-145z" horiz-adv-x="1000" />
<glyph glyph-name="500px-with-circle" unicode="&#xe801;" d="m417 387c-7 6-16 11-24 15-9 4-18 6-26 6-16 0-29-6-38-18-10-12-14-26-14-41 0-16 5-30 14-40s23-16 40-16c8 0 17 2 26 5 8 4 17 8 24 13 8 5 15 11 22 18 7 7 13 13 18 19-5 6-11 13-19 20-7 7-15 13-23 19z m214 21c-9 0-17-2-26-6-8-4-16-9-24-15-7-6-14-12-21-19-7-7-13-14-19-20 6-7 13-13 19-20 7-6 15-12 22-18 8-5 16-9 25-12 8-3 17-5 26-5 17 0 30 6 39 16 9 11 14 25 14 41 0 16-5 29-15 41-10 11-23 17-40 17z m-131 422c-265 0-480-215-480-480s215-480 480-480 480 215 480 480-215 480-480 480z m242-528c-6-16-13-29-23-41-10-11-23-20-37-27-15-6-32-10-50-10-14 0-27 2-39 7-13 4-24 10-35 17-11 7-21 15-30 24-10 10-19 19-28 29-9-10-19-19-28-29-9-9-18-17-29-24-10-7-21-13-33-17-12-5-26-7-41-7-18 0-35 4-49 10-15 7-28 16-38 27-10 11-18 24-24 40-5 15-8 32-8 49 0 18 3 35 8 50 5 15 13 28 23 39 10 12 22 20 37 27 14 7 30 10 49 10 15 0 28-2 41-7 12-5 24-11 35-18 10-8 20-16 30-26 9-10 18-20 27-31 9 10 18 21 27 31 10 10 20 18 30 26 11 7 23 13 35 18 13 5 26 7 41 7 18 0 34-3 49-10 14-6 27-15 37-26 10-11 17-24 23-39 5-15 8-32 8-49 0-18-3-35-8-50z" horiz-adv-x="1000" />
<glyph glyph-name="tumblr-with-circle" unicode="&#xe802;" d="m500 830c-265 0-480-215-480-480s215-480 480-480 480 215 480 480-215 480-480 480z m129-687c-20-9-37-16-53-20-16-3-33-5-52-5-21 0-39 2-56 8-16 5-30 13-41 23-11 10-19 20-24 31-4 12-6 28-6 49v163h-51v66c18 6 33 14 46 25 13 11 24 25 31 40 8 16 13 36 16 59h66v-117h109v-73h-109v-119c0-27 1-44 4-52 3-8 8-14 16-18 10-7 22-10 35-10 23 0 46 8 69 23v-73z" horiz-adv-x="1000" />
<glyph glyph-name="twitter" unicode="&#xe803;" d="m866 538c0-8 0-17 0-25 0-249-189-537-537-537-106 0-205 32-289 85 15-2 30-3 45-3 89 0 170 31 234 81-82 2-152 56-176 131 12-2 23-3 36-3 17 0 34 2 49 7-86 17-151 93-151 185 0 0 0 1 0 2 25-14 55-23 85-24-50 34-84 92-84 158 0 34 10 67 26 94 93-114 232-189 389-197-3 14-5 28-5 43 0 104 85 189 189 189 54 0 103-23 138-60 43 9 83 25 120 46-14-44-44-81-83-104 38 4 74 14 108 29-25-38-57-71-94-97z" horiz-adv-x="1000" />
<glyph glyph-name="baidu" unicode="&#xe804;" d="m871 503c-18 14-47 20-74 18-20-1-38-1-50-9-56-34-61-217 9-246 149-62 203 167 115 237z m-224-192c-48 56-82 134-178 119-86-13-97-83-142-132-54-59-155-101-178-192-17-67 5-145 45-174 79-57 224 6 329-5 63-6 112-28 160-27 113 3 205 83 156 215-24 64-130 125-192 196z m-14 197c57-2 115 63 119 123 5 79-47 157-124 137-45-12-83-70-86-128-5-66 30-131 91-132z m-219 18c59 8 83 79 73 160-9 67-45 132-124 110-108-31-91-289 51-270z m-206-206c129 20 99 297-41 265-120-27-104-286 41-265z" horiz-adv-x="1000" />
<glyph glyph-name="app-store" unicode="&#xe805;" d="m878 157c-20-46-30-66-57-107-37-56-89-127-154-127-58-1-73 37-151 37-78-1-94-38-152-38-65 1-115 65-152 121-104 158-114 344-50 442 45 70 117 111 184 111 69 0 112-37 169-37 55 0 89 38 168 38 61 0 124-33 170-90-149-81-125-293 25-350z m-255 503c29 37 51 89 43 143-47-4-102-34-135-73-29-35-53-88-44-139 52-2 105 29 136 69z" horiz-adv-x="1000" />
<glyph glyph-name="google-hangouts" unicode="&#xe806;" d="m500 850c-237 0-430-190-430-425 0-235 193-425 430-425v-150c168 84 430 265 430 575 0 235-192 425-430 425z m-50-487c0-66-51-121-116-127-6 0-11 5-11 11v42c0 6 4 10 9 11 26 4 47 24 52 50h-97c-21 0-37 16-37 37v126c0 21 16 37 37 37h126c21 0 37-16 37-37v-150z m300 0c0-66-51-121-116-127-6 0-11 5-11 11v42c0 6 4 10 9 11 26 4 47 24 52 50h-97c-21 0-37 16-37 37v126c0 21 16 37 37 37h126c21 0 37-16 37-37v-150z" horiz-adv-x="1000" />
<glyph glyph-name="google-drive" unicode="&#xe807;" d="m409 200l-166-300h591l166 300h-591z m-116 535l-293-531 169-304 293 531-169 304z m679-485l-304 550h-338l305-550h337z" horiz-adv-x="1000" />
<glyph glyph-name="pinterest-with-circle" unicode="&#xe808;" d="m500 830c-265 0-480-215-480-480s215-480 480-480 480 215 480 480-215 480-480 480z m33-594c-31 3-44 18-68 33-13-70-29-137-77-172-15 106 21 185 38 268-29 49 4 147 65 123 75-30-65-181 29-200 98-20 138 170 77 232-88 90-256 2-235-126 5-31 37-40 13-84-57 13-74 57-71 117 3 97 87 165 171 174 106 12 205-39 219-139 16-113-48-235-161-226z" horiz-adv-x="1000" />
<glyph glyph-name="qq" unicode="&#xe809;" d="m850 199c-39 27-87 26-115-14-28-39-221-281-537-181 11-10 24-20 37-29 208-147 495-97 641 111 28 39 13 86-26 113z m-611 31c-20 44-133 332 112 556-15-5-30-11-44-18-231-107-331-380-224-610 20-44 67-55 111-35 43 20 65 63 45 107z m302 579c-47 4-80-32-85-79-4-47 22-89 70-93 48-4 354-50 425-375 4 16 6 31 7 48 23 253-164 476-417 499z m-196-485c-14-31-16-61-5-67 7-3 19 5 29 21 5-17 15-33 30-45-16-6-26-16-26-26 0-18 28-32 62-32 31 0 57 11 61 26 2 0 6 0 8 0 4-15 30-26 61-26 34 0 62 14 62 32 0 10-10 20-26 26 15 12 26 28 30 45 10-16 22-24 29-21 11 6 9 36-5 67-10 24-24 42-35 46 1 1 1 3 1 5 0 9-3 18-8 25 1 0 1 1 1 1 0 5-1 9-3 12-3 64-44 114-111 114-67 0-108-50-111-114-1-3-3-7-3-12 0 0 0-1 1-1-5-7-7-16-7-25 0-2 0-4 0-5-11-4-25-22-35-46z" horiz-adv-x="1000" />
<glyph glyph-name="qq-with-circle" unicode="&#xe80a;" d="m500 830c-265 0-480-215-480-480s215-480 480-480 480 215 480 480-215 480-480 480z m200-596c-9-5-23 6-36 26-6-22-19-41-38-57 20-7 33-19 33-33 0-22-35-40-78-40-38 0-70 15-76 34h-10c-6-19-38-34-76-34-43 0-78 18-78 40 0 14 13 26 33 33-19 16-32 35-38 57-13-20-27-31-36-26-14 7-11 44 6 83 13 30 30 53 43 58 0 2 0 4 0 6 0 11 4 22 9 31 0 1 0 1 0 2 0 6 1 11 4 15 3 79 54 142 138 142 84 0 135-63 139-142 2-4 3-9 3-15 0-1 0-1 0-2 6-9 9-20 9-31 0-2 0-4 0-6 13-5 31-28 44-58 16-39 19-76 5-83z" horiz-adv-x="1000" />
<glyph glyph-name="raft-with-circle" unicode="&#xe80b;" d="m500 830c-265 0-480-215-480-480s215-480 480-480 480 215 480 480-215 480-480 480z m161-690c-14-13-33-21-53-21-24 0-43 9-58 27-9 12-15 25-23 47l-4 11c-9 25-17 37-29 44-3-14-7-27-11-38-23-61-54-92-94-92-23 0-43 10-56 26-17 21-22 50-15 83l1 6 51-11-1-7c-4-16-3-30 4-37 3-5 9-7 16-7 20 0 39 32 54 88-16 5-31 13-44 24l-6 4 32 41 6-4c7-6 15-10 24-14 4 25 7 52 10 82l1 7 51-5 0-7c-3-30-7-58-11-84 36 4 68 24 86 54 30 50 18 113-28 149-19 15-48 24-75 23-33-1-62-17-84-46-27-34-30-86-7-123l4-6-44-28-4 6c-34 56-30 131 10 184 31 41 74 63 123 65 40 2 80-11 109-34 67-53 84-144 41-217-19-32-48-56-83-69 6-10 12-22 18-39l4-11c13-36 19-39 32-39 6 0 13 2 17 6 8 8 10 23 7 44l-1 7 51 8 1-7c6-39-1-70-22-90z" horiz-adv-x="1000" />
<glyph glyph-name="houzz" unicode="&#xe80c;" d="m200 350l300-150-300-150v300z m300 150l300-150v300l-300-150z m0-650l300 150v350l-300-150v-350z m0 1000l-300-150v-350l300 150v350z" horiz-adv-x="1000" />
<glyph glyph-name="grooveshark" unicode="&#xe80d;" d="m500 790c-243 0-440-197-440-440 0-243 197-440 440-440 243 0 440 197 440 440 0 243-197 440-440 440z m177-457c-24 33-48 66-75 97-25 29-52 57-81 82-29 26-60 49-95 66-23 11-47 20-72 27-2 1-10 4-12 1-2-2 0-6 0-9 0-5 1-10 2-15 7-62 10-126-9-186-10-32-29-62-54-84-21-19-50-38-79-37-6 0-11 1-16 3-32 10-34 44-34 72 0 30 4 60 11 89 2 9 5 17 8 26 34 99 113 180 213 216 37 13 76 19 116 19 116 0 227-59 291-157 16-24 29-50 38-78h0c3-9 6-17 8-26 7-29 11-59 11-89 0-56-19-118-89-88-33 14-61 42-82 71z" horiz-adv-x="1000" />
<glyph glyph-name="google-play" unicode="&#xe80e;" d="m247-53l383 217-82 91-301-308z m-140 797c-4-8-7-17-7-27v-757c0-14 5-26 13-35l382 390-388 429z m767-368l-134 75-136-139 98-108 172 97c16 8 24 23 26 38-2 15-10 29-26 37z m-206 116l-461 260 344-380 117 120z" horiz-adv-x="1000" />
<glyph glyph-name="twitter-with-circle" unicode="&#xe80f;" d="m500 830c-265 0-480-215-480-480s215-480 480-480 480 215 480 480-215 480-480 480z m195-393c1-4 1-8 1-12 0-125-95-269-269-269-54 0-103 15-145 42 7-1 15-1 22-1 45 0 85 15 118 40-42 1-77 28-89 66 6-1 12-2 18-2 9 0 17 1 25 4-43 8-76 46-76 92v1c13-7 28-11 43-11-25 17-42 45-42 78 0 18 5 34 13 48 46-57 116-95 195-99-2 7-3 14-3 22 0 52 42 94 95 94 27 0 51-11 69-30 21 5 41 12 60 23-7-22-22-40-42-52 19 2 38 7 54 15-12-19-28-36-47-49z" horiz-adv-x="1000" />
<glyph glyph-name="vimeo" unicode="&#xe810;" d="m946 558c-51-289-332-533-416-589-85-56-162 22-190 82-32 67-128 433-153 463-25 30-100-30-100-30l-37 48c0 0 153 187 270 210 123 25 123-193 153-314 28-117 48-184 73-184 25 0 73 65 125 165 53 100-2 189-105 126 41 251 430 312 380 23z" horiz-adv-x="1000" />
<glyph glyph-name="basecamp" unicode="&#xe811;" d="m500 750c-234 0-465-324-465-621 0-69 227-179 465-179s465 110 465 179c0 297-231 621-465 621z m0-681c-260 0-333 104-333 136 0 65 106 225 145 225 36 0 77-91 116-91 62 0 128 198 179 198s230-259 230-338c0-13-55-130-337-130z" horiz-adv-x="1000" />
<glyph glyph-name="behance" unicode="&#xe812;" d="m404 385c0 0 94 7 94 123 0 116-77 172-175 172h-323v-646h323c0 0 197-7 197 190 0 1 8 161-116 161z m-262 180h181c0 0 44 0 44-67 0-67-26-77-55-77h-170v144z m172-416h-172v172h181c0 0 65 1 65-88 0-76-49-84-74-84z m468 367c-238 0-238-249-238-249s-16-247 238-247c0 0 213-12 213 172h-109c0 0 3-69-100-69 0 0-109-8-109 112h321c0 0 36 281-216 281z m98-195h-204c0 0 13 100 109 100s95-100 95-100z m25 321h-256v-80h256v80z" horiz-adv-x="1000" />
<glyph glyph-name="raft" unicode="&#xe813;" d="m284-100c-44 0-83 18-109 51-32 40-43 97-29 159l3 14 98-22-2-13c-7-32-5-58 7-74 8-9 18-13 32-13 38 0 77 62 106 170-32 11-61 27-87 48l-11 9 63 79 11-8c14-12 29-21 46-27 8 48 15 101 20 158l1 14 101-9-2-14c-5-58-12-113-20-163 69 7 132 46 168 105 57 97 34 219-55 289-38 30-94 47-146 45-65-3-120-32-164-88-52-68-57-169-13-241l8-12-86-54-7 12c-67 108-60 255 19 357 61 80 143 123 239 127 77 3 155-21 212-66 130-102 163-279 79-421-37-62-94-109-162-135 13-19 23-42 36-76l8-22c24-69 36-75 62-75 12 0 25 5 33 13 15 15 20 43 13 85l-2 14 100 16 2-14c12-76-3-136-44-175-27-26-64-41-102-41-47 0-84 18-112 52-19 23-30 48-45 91l-8 21c-18 48-33 73-56 85-7-26-14-51-23-73-43-118-104-178-182-178z" horiz-adv-x="1000" />
<glyph glyph-name="tripadvisor" unicode="&#xe814;" d="m1000 550h-141c-98 66-218 100-359 100s-261-34-359-100h-141c21-21 41-67 50-102-31-42-50-93-50-148 0-138 112-250 250-250 66 0 126 26 171 68l79-118 79 118c45-42 105-68 171-68 138 0 250 112 250 250 0 55-19 106-50 148 9 35 29 81 50 102z m-750-420c-94 0-170 76-170 170s76 170 170 170 170-77 170-170-76-170-170-170z m250 170c0 120-86 222-200 245 60 20 127 30 200 30s140-10 200-30c-114-23-200-125-200-245z m250-170c-94 0-170 76-170 170s76 170 170 170 170-77 170-170-76-170-170-170z m-500 277c-59 0-107-48-107-107s48-108 107-108 108 48 108 108-49 107-108 107z m0-139c-18 0-32 14-32 32s14 33 32 33 33-15 33-33-15-32-33-32z m500 139c-59 0-107-48-107-107s48-108 107-108 108 48 108 108-49 107-108 107z m0-139c-18 0-32 14-32 32s14 33 32 33 33-15 33-33-15-32-33-32z" horiz-adv-x="1000" />
<glyph glyph-name="swarm" unicode="&#xe815;" d="m514-91c-71 11-136 30-184 46-2 1-39 14-50 19-14 5-21 21-16 35 5 11 19 48 20 50 20 46 50 107 90 169 1-60 15-120 40-175 24-54 58-103 100-144z m-5 590c-140 284-450 274-499 147-37-98 127-330 505-162 0 0 0 0 0 0-1 2-5 12-6 15z m69 11c0 0 0 0 0 0 214 95 184 259 129 281-75 28-210-82-133-273 1-1 4-7 4-8z m393-208c-33 72-92 124-161 149-7 2-14 3-21 3-36 0-70-29-74-67-5-61 7-125 34-185 27-60 65-111 114-148 13-10 28-15 44-15 28 0 55 15 67 42 28 68 29 147-3 221z m-162-319c-60 46-107 107-141 182-34 77-48 154-41 230 1 21 8 42 18 60-2 0-6-1-6-1-32-8-62-21-89-39-39-26-74-64-89-109-4-12-7-26-8-38-4-61 5-124 32-184 26-58 64-106 111-143 28-22 79-36 121-36 39 0 78 12 112 29 11 6 35 21 37 22-21 5-41 14-57 27z" horiz-adv-x="1000" />
<glyph glyph-name="rainbow" unicode="&#xe816;" d="m500 600c-276 0-500-224-500-500h75c0 235 190 425 425 425s425-190 425-425h75c0 276-224 500-500 500z m0-300c-110 0-200-89-200-200h75c0 69 56 125 125 125s125-56 125-125h75c0 111-89 200-200 200z m0 150c-193 0-350-157-350-350h75c0 152 123 275 275 275s275-123 275-275h75c0 193-157 350-350 350z" horiz-adv-x="1000" />
<glyph glyph-name="icloud" unicode="&#xe817;" d="m546 600c94 0 170-80 170-178 0-7 0-15-1-24 0 0-9-63-11-80-2-17 10-32 27-33 17 0 82 0 82 0 48 0 87-42 87-92 0-51-39-93-87-93h-605c-59 0-108 51-108 114 0 46 26 87 66 105 0 0 21 9 33 14 11 5 25 22 26 39 0 17 0 36 0 36 1 26 21 48 46 48 1 0 5 0 10-2 0 0 39-9 52-13 13-3 30 4 37 16 6 12 25 49 25 49 30 58 87 94 151 94m0 100c-105 0-195-60-240-149-11 3-23 5-35 5-79 0-144-65-146-146-73-33-125-108-125-196 0-118 93-214 208-214h605c103 0 187 86 187 193 0 105-83 191-186 192 1 12 2 24 2 37 0 154-121 278-270 278l0 0z" horiz-adv-x="1000" />
<glyph glyph-name="creative-cloud" unicode="&#xe818;" d="m630 700c-98 0-187-41-251-106-19 4-39 6-59 6-166 0-300-134-300-300s134-300 300-300h310c193 0 350 157 350 350 0 193-157 350-350 350z m-310-636c-63 0-122 24-167 69-45 45-69 104-69 167s24 123 69 167c45 45 104 69 167 69s123-24 167-69l94-94c14-13 14-35 0-49-14-14-36-14-50 0l-93 94c-63 63-173 63-236 0-31-32-48-74-48-118s17-86 48-118c40-39 97-54 150-44 16-21 34-41 55-58-27-10-57-16-87-16z m515 82c-55-55-128-85-205-85-77 0-150 30-204 85l-136 135c-14 14-14 36 0 50s36 13 50 0l135-136c41-41 97-64 155-64s114 23 155 64 64 97 64 155-23 114-64 155-96 64-155 64c-44 0-85-13-121-36-19 15-40 28-62 39 51 43 115 67 183 67 77 0 150-30 205-84 54-55 84-128 84-205s-30-150-84-204z" horiz-adv-x="1000" />
<glyph glyph-name="vimeo-with-circle" unicode="&#xe819;" d="m500 830c-265 0-480-215-480-480s215-480 480-480 480 215 480 480-215 480-480 480z m220-387c-25-146-167-270-210-298-43-28-82 11-96 41-16 34-64 219-77 234-13 15-51-15-51-15l-18 25c0 0 77 94 136 105 62 13 62-97 77-158 15-59 24-93 37-93 13 0 37 33 64 83 26 51-2 96-53 64 20 127 217 157 191 12z" horiz-adv-x="1000" />
<glyph glyph-name="vine" unicode="&#xe81a;" d="m873 352c-22-5-43-7-63-7-107 0-189 75-189 205 0 64 24 97 59 97 33 0 56-29 56-90 0-34-10-72-16-94 0 0 33-58 123-40 19 42 30 98 30 146 0 130-67 206-188 206-126 0-199-96-199-223 0-126 59-233 156-283-41-81-93-153-147-207-98 119-187 277-223 585h-145c67-514 266-677 319-709 30-18 56-17 83-1 43 24 171 152 242 303 30 0 66 3 102 11v101z" horiz-adv-x="1000" />
<glyph glyph-name="dribbble" unicode="&#xe81b;" d="m478 479c-68 121-140 219-146 226-109-51-191-152-216-274 10 0 174-2 362 48z m49-132c5 2 10 3 16 5-10 22-21 44-32 66-203-60-397-56-403-55-1-5-1-9-1-13 0-101 38-193 101-263l0 1c0 0 107 190 319 259z m-268-307v1c-3 2-6 4-9 6 5-4 9-7 9-7z m147 691c0 0-1 0-1 0 0 0 1 0 1 0l0 0z m354-86c-70 61-160 98-260 98-32 0-63-4-93-11 6-8 80-106 147-229 148 55 204 140 206 142z m-260-755c-254 0-460 206-460 460 0 254 206 460 460 460 254 0 460-206 460-460 0-254-206-460-460-460z m67 396c-231-81-307-242-308-245 66-53 150-84 241-84 54 0 106 11 153 31-5 35-28 155-84 299 0-1-1-1-2-1z m18 158c9-19 17-38 26-57 3-7 5-13 8-20 136 17 269-12 274-13-1 93-34 179-90 246 0-2-63-93-218-156z m58-139c52-142 73-257 77-281 88 60 150 154 168 264-8 2-118 37-245 17z" horiz-adv-x="1000" />
<glyph glyph-name="instagram" unicode="&#xe81c;" d="m850 800h-700c-55 0-100-45-100-100v-700c0-55 45-100 100-100h700c55 0 100 45 100 100v700c0 55-45 100-100 100z m-351-726c153 0 277 124 277 277 0 17-2 33-5 49h79v-361c0-19-15-34-35-34h-630c-19 0-35 15-35 34v361h77c-3-16-5-32-5-49 0-153 124-277 277-277z m-173 277c0 95 78 173 173 173 96 0 173-78 173-173s-77-173-173-173c-95 0-173 77-173 173z m489 199h-80c-19 0-35 16-35 35v81c0 19 16 34 35 34h80c20 0 35-15 35-34v-81c0-19-15-35-35-35z" horiz-adv-x="1000" />
<glyph glyph-name="rdio" unicode="&#xe81d;" d="m810 350c0-215-172-390-385-390s-385 175-385 390c0 215 172 390 385 390 31 0 60-4 89-11v-222c-45 17-101 14-153-11-94-45-142-148-107-228 36-81 141-110 235-64 65 31 122 107 122 201v287c8-5 16-10 24-15 73-46 182-108 309-114 49-2-20-127-137-162 2-17 3-34 3-51z" horiz-adv-x="1000" />
<glyph glyph-name="rdio-with-circle" unicode="&#xe81e;" d="m500 830c-265 0-480-215-480-480s215-480 480-480 480 215 480 480-215 480-480 480z m170-454c1-9 2-17 2-26 0-109-87-197-195-197-107 0-194 88-194 197 0 109 87 197 194 197 16 0 31-2 45-5v-112c-23 8-51 7-77-6-48-23-72-75-54-116 18-40 71-55 119-32 32 16 61 54 61 102v145c4-3 8-5 12-8 37-23 92-54 156-57 25-2-9-65-69-82z" horiz-adv-x="1000" />
<glyph glyph-name="instagram-with-circle" unicode="&#xe81f;" d="m650 350c0-83-67-150-150-150-83 0-150 67-150 150 0 9 1 17 2 25h-52v-200c0-14 11-25 25-25h350c14 0 25 11 25 25v200h-52c1-8 2-16 2-25z m-150-100c55 0 100 45 100 100s-45 100-100 100-100-45-100-100 45-100 100-100z m120 205h60c8 0 15 7 15 15v60c0 8-7 15-15 15h-60c-8 0-15-7-15-15v-60c0-8 7-15 15-15z m-120 375c-265 0-480-215-480-480 0-265 215-480 480-480 265 0 480 215 480 480 0 265-215 480-480 480z m250-674c0-31-25-56-56-56h-388c-31 0-56 25-56 56v388c0 31 25 56 56 56h389c30 0 55-25 55-56v-388z" horiz-adv-x="1000" />
<glyph glyph-name="dribbble-with-circle" unicode="&#xe820;" d="m513 351c2 1 3 1 5 2-4 9-9 18-14 29-94-28-184-28-200-28 0-1 0-3 0-4 0-47 17-93 48-128 10 16 65 98 161 129z m-132-157c35-26 76-40 119-40 26 0 51 5 75 15-4 19-15 77-41 146-106-38-146-108-153-121z m247 305c-36 30-81 47-128 47-14 0-28-2-42-5 10-13 41-57 71-111 64 25 93 60 99 69z m-143-82c-30 53-62 98-70 109-54-25-93-75-106-133h1c20 0 92 2 175 24z m91-92c23-64 34-118 37-135 42 30 71 76 80 127-9 2-40 11-79 11-13 0-26-1-38-3z m-76 505c-265 0-480-215-480-480s215-480 480-480 480 215 480 480-215 480-480 480z m0-715c-130 0-235 106-235 235 0 130 105 235 235 235 130 0 235-105 235-235 0-129-105-235-235-235z m46 281c5-9 9-18 12-26 1-3 3-6 4-9 14 2 28 3 44 3 43 0 78-7 90-9-1 43-16 84-43 117-8-10-41-48-107-76z" horiz-adv-x="1000" />
<glyph glyph-name="vine-with-circle" unicode="&#xe821;" d="m500 830c-265 0-480-215-480-480s215-480 480-480 480 215 480 480-215 480-480 480z m95-323c-18 0-31-17-31-51 0-69 44-108 100-108 10 0 22 1 33 3v-53c-19-4-38-6-53-6-38-80-106-148-129-161-14-8-28-8-44 1-28 17-133 103-168 376h76c20-164 67-247 118-310 29 28 56 66 78 109-51 27-82 84-82 150 0 67 38 118 105 118 64 0 99-40 99-109 0-26-5-55-15-77-48-10-66 21-66 21 4 12 9 32 9 50 0 32-12 47-30 47z" horiz-adv-x="1000" />
<glyph glyph-name="vk" unicode="&#xe822;" d="m890 235c0 0 81-80 101-117 1 0 1-1 1-1 8-14 10-25 6-33-7-13-30-19-37-20 0 0-139 0-143 0-10 0-31 3-56 20-19 14-38 36-57 57-28 33-52 61-76 61-3 0-6-1-9-2-18-6-42-32-42-102 0-21-17-34-29-34 0 0-62 0-65 0-23 0-139 8-242 117-126 132-239 399-240 401-7 18 8 27 24 27h144c19 0 26-12 30-22 5-12 24-60 55-115 50-88 81-123 106-123 4 0 9 1 13 3 32 18 26 133 25 156 0 5-1 52-17 74-12 17-32 23-44 25 3 5 10 12 19 16 22 11 62 13 101 13h22c43-1 54-3 70-7 31-8 32-28 29-98-1-19-1-42-1-68 0-6-1-12-1-18-1-36-2-76 23-92 3-2 7-3 11-3 9 0 35 0 105 121 31 54 55 117 57 121 1 3 6 11 11 14 4 2 9 2 12 2h169c19 0 31-2 34-9 4-12-1-46-78-151-13-18-25-33-35-46-70-92-70-97 4-167z" horiz-adv-x="1000" />
<glyph glyph-name="dropbox" unicode="&#xe823;" d="m305 805l-285-178 196-164 284 185-195 157z m368-755c-5 0-10 2-15 6l-158 131-158-131c-4-4-10-6-15-6-4 0-8 2-12 4l-117 77v-46l302-190 302 191v45l-117-77c-4-2-8-4-12-4z m307 577l-285 178-195-157 284-185 196 164z m-480-342l176-146 283 184-175 140-284-178z m-176-146l176 146-284 178-174-139 282-185z" horiz-adv-x="1000" />
<glyph glyph-name="lastfm" unicode="&#xe824;" d="m429 121c-24-17-73-51-169-51-133 0-260 95-260 270 0 183 132 290 268 290 152 0 209-55 257-205l38-116c27-84 85-145 201-145 78 0 119 17 119 60 0 33-19 57-78 71l-78 19c-95 23-132 73-132 151 0 126 100 165 203 165 117 0 188-43 197-147l-114-13c-5 49-35 70-90 70-50 0-81-23-81-62 0-35 15-56 65-67l74-16c98-24 151-72 151-166 0-115-96-159-238-159-198 0-267 90-304 202l-36 116c-28 84-50 145-151 145-70 0-161-46-161-188 0-111 76-180 156-180 67 0 107 37 128 56l35-100z" horiz-adv-x="1000" />
<glyph glyph-name="renren" unicode="&#xe825;" d="m423 807c-217-37-383-226-383-454 0-113 41-217 109-297 161 78 274 255 274 460v291z m77-570c-28-118-114-220-221-287 66-36 141-57 221-57 80 0 155 21 221 57-107 67-192 169-221 287z m77 281c0-206 113-383 274-462 68 80 109 184 109 297 0 228-166 417-383 454v-289z" horiz-adv-x="1000" />
<glyph glyph-name="scribd" unicode="&#xe826;" d="m232-64c0-11-3-25-7-36h287c16 19 25 42 25 67 0 69-82 108-262 192l-25 12c-89 42-154 79-200 123v-219c9 1 18 2 28 2 150 0 154-140 154-141z m618 864h-187c88-59 124-142 124-207 0-110-92-145-137-145l-13 0c-103 0-155 62-156 185-6 5-34 23-117 23-98 0-139-78-139-119 0-48 28-103 225-169 336-113 336-263 336-395v-1c0-22-1-47-5-72h69c55 0 100 45 100 100v700c0 55-45 100-100 100z" horiz-adv-x="1000" />
<glyph glyph-name="lastfm-with-circle" unicode="&#xe827;" d="m500 830c-265 0-480-215-480-480s215-480 480-480 480 215 480 480-215 480-480 480z m132-621c-100 0-135 45-153 102l-19 58c-13 43-25 73-76 73-35 0-81-23-81-95 0-55 39-91 79-91 33 0 54 20 64 29l18-51c-12-8-37-25-85-25-68 0-132 47-132 136 0 92 67 147 136 147 77 0 105-28 130-104l19-59c14-42 43-73 102-73 39 0 60 9 60 30 0 17-10 29-40 36l-39 10c-48 11-67 36-67 76 0 64 51 84 103 84 59 0 95-22 99-74l-57-7c-3 25-18 35-46 35-25 0-41-12-41-31 0-18 8-28 33-34l37-8c50-12 77-37 77-84 0-58-49-80-121-80z" horiz-adv-x="1000" />
<glyph glyph-name="evernote" unicode="&#xe828;" d="m865 635c0 60-85 65-85 65l-205 15c0 0-5 55-45 75-40 15-85 10-115 10-35 0-40-45-40-80 0-40 0-85 0-110 0-50-20-70-80-70h-115c-30 0-55-5-55-30 0-25 40-250 90-300 30-30 215-50 255-50s25 115 35 115 25-65 85-80c60-15 145-10 150-55 5-60 10-130-25-135l-85-5c-60 5-45 70-15 70 25 0 40 0 40 0l5 70c0 0-135 15-140-75-5-85 10-120 20-130 10-10 30-25 195-25 215-10 130 665 130 725z m-95-300c-5-10-40 15-70 15-30 0-65-15-75-5-10 10 5 100 65 100s90-100 80-110z m-505 285c-25 0-145 0-145 0l175 170c0 0-5-140-5-150 0-10-5-20-25-20z" horiz-adv-x="1000" />
<glyph glyph-name="vk-alternitive" unicode="&#xe829;" d="m950 0v700c0 55-45 100-100 100h-700c-57 0-100-43-100-100v-700c0-57 43-100 100-100h700c55 0 100 45 100 100z m-191 270c0 0 57-56 71-82 0-1 0-1 0-1 6-10 8-17 5-23-5-9-21-14-26-14 0 0-98 0-100 0-7 0-22 2-39 14-14 9-27 25-40 40-20 23-37 42-53 42-3 0-5 0-7-1-13-4-29-22-29-71 0-15-12-24-20-24 0 0-44 0-46 0-16 0-97 5-169 81-88 93-168 280-168 282-5 12 5 18 16 18h101c14 0 18-8 21-15 4-9 17-42 39-80 35-62 56-87 74-87 3 0 6 1 9 2 22 13 18 93 17 110 0 3 0 36-11 52-9 11-23 15-31 17 2 3 7 8 13 11 16 8 43 9 71 9h16c30 0 37-2 48-5 22-5 23-20 21-68-1-14-1-30-1-48 0-4-1-8-1-13 0-24-1-53 16-64 3-1 5-2 8-2 6 0 24 0 74 85 21 37 38 81 39 85 1 1 4 7 8 9 3 1 6 2 8 2h119c13 0 22-2 23-7 3-8 0-32-55-106-9-12-17-22-24-32-49-64-49-67 3-116z" horiz-adv-x="1000" />
<glyph glyph-name="vk-with-circle" unicode="&#xe82a;" d="m500 830c-265 0-480-215-480-480s215-480 480-480 480 215 480 480-215 480-480 480z m185-541c0 0 42-42 53-62 0 0 0-1 0-1 4-7 5-13 3-17-3-7-15-10-19-10 0 0-73 0-75 0-6 0-16 1-30 10-10 7-20 19-30 30-14 17-27 32-39 32-2 0-4 0-5-1-10-3-22-17-22-53 0-12-9-18-15-18 0 0-33 0-35 0-11 0-72 4-126 61-67 70-126 209-127 211-3 9 4 14 13 14h76c10 0 13-7 15-12 3-6 13-32 29-60 27-46 43-65 56-65 2 0 4 1 7 2 17 9 13 69 13 82 0 2 0 27-9 39-6 8-17 11-23 13 1 2 5 6 10 8 11 6 32 7 53 7h12c22-1 28-2 36-4 17-4 17-15 15-51 0-10 0-22 0-36 0-3-1-6-1-10 0-18-1-39 12-48 2-1 4-1 6-1 5 0 18 0 55 63 17 28 29 61 30 64 1 1 3 5 6 7 2 1 5 1 6 1h89c10 0 16-1 18-5 2-6-1-24-41-79-7-9-13-17-19-24-36-48-36-51 3-87z" horiz-adv-x="1000" />
<glyph glyph-name="facebook" unicode="&#xe82b;" d="m850 800h-700c-55 0-100-45-100-100v-700c0-55 45-100 100-100h350v350h-100v124h100v102c0 108 61 185 188 185l90-1v-130h-59c-50 0-69-37-69-72v-84h128l-28-124h-100v-350h200c55 0 100 45 100 100v700c0 55-45 100-100 100z" horiz-adv-x="1000" />
<glyph glyph-name="linkedin" unicode="&#xe82c;" d="m250 700c0-55-35-100-100-100-60 0-100 45-100 95 0 55 40 105 100 105s100-45 100-100z m-200-800h200v650h-200v-650z m680 640c-105 0-165-60-190-100h-5l-10 85h-180c0-55 5-120 5-195v-430h200v355c0 20 0 35 5 50 15 35 40 80 95 80 70 0 100-60 100-140v-345h200v370c0 185-95 270-220 270z" horiz-adv-x="1000" />
<glyph glyph-name="sina-weibo" unicode="&#xe82d;" d="m734 347c-13 4-23 7-16 25 16 40 18 74 1 99-32 46-118 43-218 1 0 0-31-14-23 11 16 50 13 92-11 116-53 55-196-2-319-127-92-93-145-192-145-278 0-164 206-274 408-274 265 0 442 167 442 291 0 75-63 118-119 136z m-322-354c-161-16-301 58-311 164-11 107 112 206 273 222 161 16 301-57 311-164 10-106-112-205-273-222z m586 487c0 166-135 300-300 300-20 0-35-16-35-35s15-35 35-35c127 0 230-103 230-230 0-19 15-35 35-35s35 16 35 35v0z m-139 5c-16 78-78 140-156 156-19 4-38-8-41-27-4-19 8-38 27-42 51-10 91-50 101-101 4-19 22-31 41-27 19 4 31 22 28 41z m-530-210c-65-13-109-68-98-122 11-54 73-87 138-74 64 13 108 67 97 122-10 54-72 87-137 74z" horiz-adv-x="1000" />
<glyph glyph-name="skype" unicode="&#xe82e;" d="m934 248c6 31 10 64 10 97 0 249-197 452-439 452-26 0-51-3-75-7-39 25-86 40-135 40-141 0-255-117-255-262 0-48 13-93 35-132-6-30-9-60-9-91 0-249 197-452 439-452 27 0 54 3 80 8 36-20 77-31 121-31 140 0 254 117 254 262 0 42-9 81-26 116z m-204-119c-20-29-50-53-89-69-39-17-85-25-137-25-63 0-116 11-157 34-30 16-54 38-73 66-18 27-28 55-28 81 0 17 6 31 19 43 12 12 27 18 45 18 15 0 28-5 39-14 10-9 19-22 26-39 8-18 16-34 25-46 9-12 21-22 37-29 16-8 37-12 63-12 37 0 66 8 89 24 22 15 32 34 32 56 0 18-5 32-17 43-12 11-27 20-46 27-20 6-47 13-81 20-45 10-84 22-115 35-31 14-57 33-75 57-19 24-29 55-29 91 0 34 10 64 30 91 20 26 48 47 85 61 37 14 80 21 129 21 39 0 74-5 102-14 29-9 54-22 73-37 19-16 34-32 43-50 9-17 13-34 13-51 0-16-6-31-18-44-12-13-27-19-45-19-16 0-29 4-38 12-8 7-16 19-26 36-11 21-24 38-39 50-15 12-40 17-73 17-32 0-57-6-76-19-19-12-28-26-28-43 0-11 3-19 9-26 6-8 15-15 26-21 12-6 24-11 36-14 12-4 32-9 60-15 36-8 68-17 97-26 30-10 55-22 75-36 21-14 38-32 50-53 12-22 18-49 18-80 0-37-11-71-31-101z" horiz-adv-x="1000" />
<glyph glyph-name="linkedin-with-circle" unicode="&#xe82f;" d="m500 830c-265 0-480-215-480-480s215-480 480-480 480 215 480 480-215 480-480 480z m-117-679h-98v313h98v-313z m-50 351c-30 0-50 22-50 49 0 27 20 48 52 48 31 0 50-21 51-48 0-27-20-49-53-49z m405-351h-98v173c0 41-14 68-49 68-27 0-43-18-50-36-2-7-3-16-3-24v-181h-97v213c0 39-2 72-3 100h85l4-43h2c13 20 44 50 97 50 64 0 112-43 112-135v-185z" horiz-adv-x="1000" />
<glyph glyph-name="facebook-with-circle" unicode="&#xe830;" d="m500 830c-265 0-480-215-480-480s215-480 480-480 480 215 480 480-215 480-480 480z m114-332h-72c-9 0-18-11-18-26v-52h90l-14-74h-76v-223h-86v223h-77v74h77v44c0 62 44 113 104 113h72v-79z" horiz-adv-x="1000" />
<glyph glyph-name="windows-store" unicode="&#xe831;" d="m475 688v-313h425v375l-425-62z m-375-313h325v306l-325-48v-258z m375-363l425-62v375h-425v-313z m-375 55l325-48v306h-325v-258z" horiz-adv-x="1000" />
<glyph glyph-name="xing" unicode="&#xe832;" d="m885 800h-141c-11 0-28-5-35-19s-15-31-15-31l-250-500 150-300c0 0 8-17 15-31s24-19 35-19h141c25 0 24 19 18 31s-9 19-9 19l-150 300 250 500c0 0 3 6 9 19s7 31-18 31z m-544-219c-7 14-24 19-35 19h-141c-25 0-24-19-18-32s9-18 9-18l63-125-113-225c0 0-3-6-9-18s-7-32 18-32h141c11 0 28 5 35 19 7 14 15 31 15 31l113 225-63 125c0 0-8 17-15 31z" horiz-adv-x="1000" />
<glyph glyph-name="flattr" unicode="&#xe833;" d="m280 423c0 82 22 134 94 146 26 5 79 3 112 3v-125c0-1 0-3 1-4 1-5 6-9 11-9 3 0 6 1 9 4l312 312h-209-233c-183 0-277-106-277-303v-415l180 180v211z m440 65v-211c0-82-22-134-94-145-26-5-79-4-112-4v125c0 1-1 3-1 5-1 5-6 8-11 8-3 0-6-1-9-4l-312-312 209 0h233c183 0 277 106 277 303v415l-180-180z" horiz-adv-x="1000" />
<glyph glyph-name="mail-with-circle" unicode="&#xe834;" d="m500 830c-265 0-480-215-480-480s215-480 480-480 480 215 480 480-215 480-480 480z m-188-330h376c20 0 9-26-2-32-10-7-161-97-166-101s-13-5-20-5c-8 0-15 2-21 5-5 4-155 94-166 101-11 6-21 32-1 32z m388-275c0-10-13-25-22-25h-356c-9 0-22 15-22 25 0 0 0 178 0 182 0 5 0 11 9 6 12-7 163-96 170-101 8-4 13-5 21-5 7 0 12 1 20 5s159 94 171 101c9 5 9-1 9-6 0-4 0-182 0-182z" horiz-adv-x="1000" />
<glyph glyph-name="skype-with-circle" unicode="&#xe835;" d="m608 357c-11 8-25 15-42 20-16 6-34 10-54 15-16 4-27 6-34 8-7 2-13 5-20 8-6 4-11 7-15 12-3 4-4 9-4 15 0 9 5 17 15 24 10 7 25 10 42 10 19 0 33-3 41-9 9-7 16-16 22-28 6-10 10-16 15-20 5-5 12-7 21-7 10 0 19 3 26 11 6 7 10 15 10 24 0 10-3 19-8 29-5 10-13 19-24 28-11 8-24 15-40 20-17 6-36 8-58 8-27 0-52-4-72-12-21-7-37-19-48-34-11-15-16-32-16-51 0-20 5-37 15-50 11-14 25-25 43-32 17-8 39-14 64-20 19-4 34-8 45-12 11-3 20-8 26-14 7-7 10-14 10-24 0-13-6-23-18-32-13-9-29-13-50-13-15 0-26 2-35 6-9 5-16 10-21 17-5 6-10 15-14 25-4 10-9 17-15 22-5 5-13 8-21 8-11 0-19-3-26-10-7-7-10-15-10-24 0-15 5-30 16-45 10-16 24-28 40-37 23-13 53-19 88-19 30 0 55 4 77 13 22 10 38 23 50 39 11 17 17 36 17 57 0 17-3 32-10 44-7 12-16 23-28 30z m-108 473c-265 0-480-215-480-480s215-480 480-480 480 215 480 480-215 480-480 480z m115-749c-24 0-47 7-67 18-15-3-30-5-45-5-136 0-246 114-246 253 0 18 2 35 5 51-12 22-20 47-20 74 0 81 64 147 143 147 28 0 54-8 76-23 13 3 27 4 42 4 135 0 245-113 245-253 0-18-1-37-5-54 9-20 15-42 15-65 0-81-64-147-143-147z" horiz-adv-x="1000" />
<glyph glyph-name="slideshare" unicode="&#xe836;" d="m650 496c69 0 125 56 125 125s-56 125-125 125-125-56-125-125 56-125 125-125z m292 57c-179-128-261-106-342-103-56 3-75-15-75-54l0-300c0-250 421-172 258 247 84 48 154 122 194 171 21 30-1 62-35 39z m-592 193c-69 0-125-56-125-125s56-125 125-125 125 56 125 125-56 125-125 125z m50-296c-81-3-163-25-342 103-34 23-56-9-35-39 40-49 110-122 194-170-163-420 258-498 258-248l0 300c0 39-19 57-75 54z" horiz-adv-x="1000" />
<glyph glyph-name="medium" unicode="&#xe837;" d="m938 600c0 0-38 0-38-37s0-425 0-425 0-38 38-38h12v-100h-300v100h50v465h-5l-153-565h-135l-152 565h-5v-465h50v-100h-250v100h13c0 0 37 0 37 38 0 37 0 425 0 425s0 37-37 37h-13v100h332l116-433h4l117 433h331v-100h-12z" horiz-adv-x="1000" />
<glyph glyph-name="flickr" unicode="&#xe838;" d="m250 150c-109 0-198 90-198 200 0 111 89 200 198 200 109 0 198-89 198-200 0-111-89-200-198-200z m500 0c-109 0-198 90-198 200 0 111 89 200 198 200 109 0 198-89 198-200 0-111-89-200-198-200z" horiz-adv-x="1000" />
<glyph glyph-name="xing-with-circle" unicode="&#xe839;" d="m500 830c-265 0-480-215-480-480s215-480 480-480 480 215 480 480-215 480-480 480z m-97-555c0 0-4-9-7-15-4-7-12-10-18-10h-71c-12 0-11 10-8 16 3 6 4 9 4 9l56 113-31 62c0 0-1 3-4 9-3 7-4 16 8 16h71c6 0 14-3 18-9 3-7 7-16 7-16l31-62-56-113z m299 284c-4-6-5-9-5-9l-125-250 75-150c0 0 1-3 5-9 3-6 3-16-9-16h-71c-6 0-14 3-17 10-4 7-8 15-8 15l-75 150 125 250c0 0 4 9 8 16 3 6 11 9 17 9h71c12 0 12-9 9-16z" horiz-adv-x="1000" />
<glyph glyph-name="yelp" unicode="&#xe83a;" d="m627 227l226-74c0 0 32-6 32-27 0-16-10-33-10-33l-95-138c0 0-17-14-35-14-17 0-37 27-37 27l-120 203c0 0-14 30 2 46 15 15 37 10 37 10z m-48 93c11-20 43-14 43-14l226 67c0 0 30 12 35 29 4 17-5 37-5 37l-108 128c0 0-9 17-29 18-21 2-34-24-34-24l-128-203c0 0-11-20 0-38z m-107 79c27 7 31 46 31 46l-2 324c0 0-4 40-22 51-28 17-36 8-44 7l-187-71c0 0-19-6-28-21-14-22 14-54 14-54l194-268c0 0 19-20 44-14z m-46-131c0 25-30 40-30 40l-201 102c0 0-30 13-45 4-11-6-21-18-22-29l-13-163c0 0-2-28 6-41 10-18 44-5 44-5l235 52c9 6 25 7 26 40z m58-88c-20 10-44-11-44-11l-158-175c0 0-19-27-14-44 4-15 12-23 23-28l158-50c0 0 20-4 34 0 21 6 17 39 17 39l3 236c0 0 0 23-19 33z" horiz-adv-x="1000" />
<glyph glyph-name="flickr-with-circle" unicode="&#xe83b;" d="m500 830c-265 0-480-215-480-480s215-480 480-480 480 215 480 480-215 480-480 480z m-128-580c-55 0-99 45-99 100 0 55 44 100 99 100 55 0 99-45 99-100 0-55-45-100-99-100z m256 0c-54 0-99 45-99 100 0 55 45 100 99 100 55 0 99-45 99-100 0-55-44-100-99-100z" horiz-adv-x="1000" />
<glyph glyph-name="medium-with-circle" unicode="&#xe83c;" d="m500 830c-265 0-480-215-480-480s215-480 480-480 480 215 480 480-215 480-480 480z m210-363h-6c0 0-17 0-17-18 0-17 0-198 0-198s0-18 17-18h6v-46h-140v46h23v217h-2l-71-263h-63l-71 263h-3v-217h24v-46h-117v46h6c0 0 17 0 17 18s0 198 0 198 0 18-17 18h-6v46h155l54-202h2l55 202h154v-46z" horiz-adv-x="1000" />
<glyph glyph-name="smashing" unicode="&#xe83d;" d="m501 48c-125 0-212 78-212 78l-75-168c52-27 105-47 136-57l-80-19c-37-9-75 14-84 51l-154 647c-9 37 14 75 51 84l186 44c-45-51-63-113-59-182 7-110 112-194 237-242 235-88 180-236 54-236z m467 72l-154 647c-9 37-47 60-84 51l-133-32c34-5 101-20 175-59l-58-160c0 0-48 54-178 60-123 6-191-127 49-205 183-60 242-176 239-283-1-56-21-101-43-135l136 33c37 8 60 46 51 83z" horiz-adv-x="1000" />
<glyph glyph-name="soundcloud" unicode="&#xe83e;" d="m34 197l16 70-16 73c-1 2-5 3-10 3-5 0-9-1-9-3l-15-73 14-70c1-2 5-3 10-3 5 0 9 1 10 3z m102-39l14 109-14 167c0 4-6 8-12 8-6 0-11-4-12-8l-12-167 12-109c1-4 6-7 12-7 6 0 12 3 12 7z m102 2l12 107-12 222c0 6-6 10-14 10-7 0-13-4-14-10l-10-222 10-107c1-5 7-9 14-9 8 0 14 4 14 9z m103 2l9 105-9 224c-1 6-8 11-16 11-9 0-16-5-17-11l-8-224 9-105c0-6 7-11 16-11 8 0 15 5 16 11z m102 1l7 103-7 258c-1 7-9 13-18 13-10 0-18-6-18-13l-7-257 7-104c0-7 8-13 18-13 9 0 17 6 18 13z m71-13c0 0 355 0 357 0 71 0 129 56 129 125 0 69-58 124-129 124-17 0-34-3-50-9-10 112-107 200-226 200-29 0-57-5-82-15-10-3-13-7-13-15v-395c0-8 6-14 14-15z" horiz-adv-x="1000" />
<glyph glyph-name="mixi" unicode="&#xe83f;" d="m477-13h48v-107c326 34 499 357 471 585-28 227-272 384-547 351-275-34-474-246-445-473 25-207 230-356 473-356z m308 220h-92v248c0 10-1 19-2 28-2 7-5 13-9 19-3 5-9 9-16 12-8 3-18 5-31 5-27 0-48-7-63-21-14-14-21-32-21-55v-236h-92v248c0 10-1 19-3 28-2 7-5 14-9 19-3 5-9 9-15 12-8 3-17 5-29 5-16 0-29-3-40-9-11-6-20-13-27-21-7-8-12-17-15-25-3-9-5-16-5-21v-236h-91v385h88v-30c28 25 65 38 109 38 25 0 49-5 70-15 15-7 27-18 37-33 11 13 25 23 40 31 23 11 48 17 75 17 20 0 39-2 55-6 17-5 33-11 45-21 13-9 23-22 30-37 7-15 11-33 11-54v-275z" horiz-adv-x="1000" />
<glyph glyph-name="foursquare" unicode="&#xe840;" d="m246 800c-25 0-46-21-46-46v-826c0-31 38-46 60-23l223 239c4 4 8 6 13 6h162c25 0 45 17 50 41l106 526c9 43-24 83-68 83h-500z m196-559l-142-167v609c0 9 8 17 17 17h357c17 0 30-16 27-32l-21-103c-2-9-9-15-18-15h-186c-14 0-26-12-26-26v-61c0-7 6-13 13-13h164c16 0 27-14 24-29l-31-153c-2-10-11-18-22-18h-135c-8 0-16-3-21-9z" horiz-adv-x="1000" />
<glyph glyph-name="youko" unicode="&#xe841;" d="m971 246c-27 52-106 86-140 132 23 53 147 86 137 178-8 67-108 71-134 17-19-22-40-43-62-63-11-13-23-25-36-36-15-16-28-36-49-46v128c0 70-130 70-130 0v-366c5-26 17-46 45-50h39c27 5 43 22 46 50v79c0 28-5 74 13 46 27-26 64-54 98-85 33-30 64-79 98-86 70-15 101 53 75 102z m-561 396c-28-19-44-79-62-122-21-47-39-94-59-129-54 63-91 201-157 251-21 17-67 16-88 0-56-43 0-118 23-158 50-87 105-181 147-261-27-73-165-279 20-268 44 30 63 91 88 146 49 113 92 210 143 327 22 48 73 120 62 175-9 43-75 69-117 39z" horiz-adv-x="1000" />
<glyph glyph-name="youko-with-circle" unicode="&#xe842;" d="m500 830c-265 0-480-215-480-480s215-480 480-480 480 215 480 480-215 480-480 480z m-20-454c-30-67-54-124-83-189-14-32-25-67-51-84-108-7-28 112-12 154-24 47-56 101-85 152-13 23-46 67-13 91 12 10 39 10 51 0 38-29 59-109 91-145 11 20 22 47 34 75 11 24 20 59 36 70 24 18 63 3 68-23 6-31-24-73-36-101z m249-164c-19 4-37 32-56 49-20 18-42 35-57 50-11 16-8-11-8-27v-46c-2-16-11-26-26-28h-23c-16 2-23 13-26 28v213c0 40 75 40 75 0v-75c13 6 20 17 29 27 7 6 14 13 21 21 12 11 24 23 35 36 15 32 74 29 78-9 6-54-66-73-79-104 19-26 65-46 81-76 15-29-3-68-44-59z" horiz-adv-x="1000" />
<glyph glyph-name="github" unicode="&#xe843;" d="m659 285c-36 0-65-41-65-90 0-50 29-90 65-90s65 40 65 90c0 49-29 90-65 90z m226 234c8 18 8 122-31 221 0 0-91-10-228-104-29 8-77 12-126 12-49 0-97-4-126-12-137 94-228 104-228 104-39-99-39-203-31-221-47-51-75-111-75-194 0-359 298-365 373-365 17 0 51 0 87 0 36 0 70 0 87 0 75 0 373 6 373 365 0 83-28 143-75 194z m-384-515h-2c-189 0-336 23-336 206 0 44 16 85 53 119 61 56 165 26 283 26 0 0 1 0 1 0 1 0 1 0 1 0 118 0 222 30 284-26 36-34 52-75 52-119 0-183-147-206-336-206z m-160 281c-36 0-65-41-65-90 0-50 29-90 65-90 36 0 65 40 65 90 0 49-29 90-65 90z" horiz-adv-x="1000" />
<glyph glyph-name="onedrive" unicode="&#xe844;" d="m321 358c25 98 113 169 218 169 61 0 119-25 161-69 18 6 39 10 57 11v6c0 124-92 225-206 225-81 0-151-52-185-127-24 17-53 27-84 27-89 0-162-79-162-176 0-10 1-21 3-31-69-6-123-77-123-154 0 0 1-1 1-2-1-1-1-1-1-2 0-31 11-59 28-81 25-34 63-54 107-54h63c-12 24-20 52-20 81 0 87 62 159 143 177z m573-97c-1 0-2 0-3 0 0 4 1 7 1 11 0 74-60 133-133 133-30 0-57-10-79-26-27 51-80 86-142 86-89 0-161-73-161-162 0-1 0-2 0-3-6 1-12 2-18 2-67 0-121-54-121-121 0-9 1-17 3-25 11-60 64-106 128-106h535v1c54 5 96 50 96 105 0 58-47 105-106 105z" horiz-adv-x="1000" />
<glyph glyph-name="spotify" unicode="&#xe845;" d="m500 790c-243 0-440-197-440-440 0-243 197-440 440-440 243 0 440 197 440 440 0 243-197 440-440 440z m174-665c-9 0-15 3-21 7-60 36-133 55-213 55-41 0-85-5-130-14l-6-2c-6-1-12-3-16-3-19 0-33 15-33 33 0 19 10 32 28 35 54 13 106 19 157 19 93 0 176-22 247-64 12-7 20-15 20-33 0-18-15-33-33-33z m46 128c-11 0-18 4-24 7-107 64-266 85-398 50-2-1-4-1-6-2-5-1-9-3-16-3-21 0-39 18-39 40 0 20 11 35 31 41 51 14 98 23 167 23 110 0 217-28 301-78 16-9 23-21 23-39 0-21-18-39-39-39z m51 146c-9 0-15 2-24 7-73 44-186 70-304 70-61 0-117-7-165-20-2-1-3-1-5-1-5-2-12-4-18-4-26 0-46 21-46 47 0 22 12 40 34 46 58 17 126 26 200 26 134 0 261-30 350-82 16-9 24-23 24-43 0-26-20-46-46-46z" horiz-adv-x="1000" />
<glyph glyph-name="spotify-with-circle" unicode="&#xe846;" d="m500 830c-265 0-480-215-480-480s215-480 480-480 480 215 480 480-215 480-480 480z m148-672c-7 0-12 3-18 6-50 31-113 47-181 47-35 0-72-4-111-12l-5-1c-5-1-10-3-14-3-16 0-28 12-28 28 0 16 9 27 24 30 46 11 90 16 134 16 79 0 150-18 210-55 11-6 17-13 17-28 0-15-12-28-28-28z m39 109c-9 0-14 4-20 7-91 54-227 72-339 42-2 0-3-1-5-1-4-2-8-3-14-3-18 0-33 15-33 33 0 18 9 31 26 36 43 11 84 19 142 19 94 0 186-23 258-66 13-8 18-18 18-33 0-19-14-34-33-34z m44 125c-8 0-13 2-21 6-62 37-158 59-258 59-53 0-100-6-141-17-2 0-3 0-4-1-5-1-10-3-16-3-22 0-39 18-39 40 0 19 11 34 29 39 50 15 107 22 170 22 115 0 223-25 298-69 15-8 21-20 21-37 1-22-17-39-39-39z" horiz-adv-x="1000" />
<glyph glyph-name="paypal" unicode="&#xe847;" d="m396 316h83c180 0 282 81 315 248 1 6 2 11 2 16 2 12 3 22 4 31 0 7 0 11 0 15 0 19-4 36-11 52-6 15-16 29-30 46-43 48-117 76-206 76h-283c-20 0-37-14-40-34l-51-329-63-409c-2-15 9-28 24-28l138 0 43 252c6 37 37 64 75 64z m455 230c-40-189-168-289-372-289h-83c-8 0-15-6-17-14l-55-343h145c18 0 33 13 35 30l2 7 28 176 1 10c3 17 18 30 35 30h22c143 0 254 58 287 225 13 69 7 127-28 168z" horiz-adv-x="1000" />
<glyph glyph-name="github-with-circle" unicode="&#xe848;" d="m501 353c0 0-1 0-1 0h-1c-59 0-112 15-143-14-18-17-26-37-26-60 0-92 74-104 169-104h2c95 0 169 12 169 104 0 23-8 43-26 60-31 29-84 14-143 14z m-81-127c-18 0-33 20-33 46 0 25 15 45 33 45 18 0 33-20 33-45 0-26-15-46-33-46z m160 0c-18 0-33 20-33 46 0 25 15 45 33 45 18 0 33-20 33-45 0-26-15-46-33-46z m-80 604c-265 0-480-215-480-480s215-480 480-480 480 215 480 480-215 480-480 480z m44-677c-9 0-26 0-44 0-18 0-35 0-44 0-38 0-188 3-188 185 0 41 14 72 37 97-3 9-4 62 16 112 0 0 46-5 115-52 15 4 40 6 64 6s49-2 64-6c69 47 115 52 115 52 20-50 20-103 16-112 23-25 38-56 38-97-1-182-151-185-189-185z" horiz-adv-x="1000" />
<glyph glyph-name="youtube" unicode="&#xe849;" d="m500 735c-491 0-500-44-500-385s9-385 500-385 500 44 500 385-9 385-500 385z m160-402l-224-104c-20-10-36 1-36 22v198c0 21 16 32 36 23l224-105c20-9 20-24 0-34z" horiz-adv-x="1000" />
<glyph glyph-name="youtube-with-circle" unicode="&#xe84a;" d="m580 358l-112 53c-10 4-18-1-18-12v-98c0-11 8-16 18-12l112 53c10 4 10 12 0 16z m-80 472c-265 0-480-215-480-480s215-480 480-480 480 215 480 480-215 480-480 480z m0-675c-246 0-250 22-250 195s4 195 250 195 250-22 250-195-4-195-250-195z" horiz-adv-x="1000" />
<glyph glyph-name="google+" unicode="&#xe84b;" d="m100 571c0-75 24-129 74-161 40-26 87-30 111-30 6 0 11 1 14 1 0 0-8-50 29-100h-1c-65 0-275-13-275-186 0-176 193-185 232-185 3 0 5 0 5 0 0 0 3 0 8 0 24 0 89 3 148 32 78 38 117 103 117 194 0 89-60 141-104 180-26 23-49 43-49 63 0 20 17 35 38 54 34 31 67 75 67 157 0 73-10 122-68 153 6 3 28 6 38 7 32 4 78 9 78 35v5h-230c-2 0-232-9-232-219z m371-451c4-70-56-122-146-129-92-7-168 35-172 105-2 34 13 67 42 93 29 27 70 43 114 47 5 0 10 0 15 0 85 0 143-50 147-116z m-60 499c22-80-12-163-66-178-6-2-13-3-19-3-50 0-99 51-118 120-10 39-9 73 3 106 11 32 32 54 58 61 6 2 13 3 19 3 60 0 99-25 123-109z m389-169v150h-100v-150h-150v-100h150v-150h100v150h150v100h-150z" horiz-adv-x="1000" />
<glyph glyph-name="500px" unicode="&#xe84c;" d="m320 111c24 9 46 20 67 34 20 15 40 31 58 50 18 18 37 38 56 58 17-20 35-40 54-58 19-19 40-35 61-50 21-14 44-25 69-34 24-8 51-13 79-13 36 0 69 7 99 20 29 13 54 31 74 55 20 23 36 50 47 81 11 31 16 64 16 99 0 36-5 69-16 99-11 30-27 56-47 78-20 22-44 40-73 53-30 12-62 19-99 19-29 0-56-5-81-14-25-9-48-21-69-36-22-15-42-33-60-53-19-20-37-40-54-61-19 22-37 42-56 62-18 20-38 37-60 52-21 15-44 27-69 36-25 9-53 14-83 14-36 0-69-7-98-20-29-13-54-31-74-53-20-23-35-49-45-79-11-31-16-64-16-99 0-36 5-69 16-100 11-31 27-57 48-80 21-22 46-40 75-53 29-13 62-20 100-20 30 0 57 5 81 13z m-162 157c-19 20-28 47-28 80 0 30 9 57 28 81 18 24 43 36 75 36 18 0 35-4 52-11 17-8 34-18 50-30 16-11 31-24 46-38 14-15 27-28 38-39-11-13-23-26-37-39-14-13-28-25-44-36-15-10-31-19-49-26-17-6-34-10-52-10-33 0-60 11-79 32z m555-22c-17 6-33 14-49 25-15 10-30 22-43 35-14 14-27 27-38 41 10 11 23 24 36 39 14 14 28 27 43 38 15 12 31 22 48 30 17 7 34 11 53 11 33 0 60-11 79-34 20-23 30-50 30-82 0-32-9-58-28-80-18-22-44-33-77-33-19 0-37 3-54 10z" horiz-adv-x="1000" />
<glyph glyph-name="google+-with-circle" unicode="&#xe84d;" d="m500 830c-265 0-480-215-480-480s215-480 480-480 480 215 480 480-215 480-480 480z m-28-686c-30-15-62-16-75-16-2 0-4 0-4 0s-1 0-2 0c-20 0-117 4-117 93 0 87 106 94 138 94h1c-19 25-15 51-15 51-1 0-4-1-7-1-12 0-35 2-56 16-25 16-37 43-37 80 0 107 116 111 117 111h116v-2c0-13-23-16-39-18-5-1-16-2-19-3 29-16 34-41 34-77 0-42-16-65-34-80-11-10-19-17-19-27 0-10 12-21 25-32 22-20 52-46 52-91 0-46-19-79-59-98z m253 206h-75v-75h-50v75h-75v50h75v75h50v-75h75v-50z m-314-57c-2 0-5-1-8-1-22-1-42-10-57-23-15-13-22-30-21-47 2-36 40-57 86-53 46 3 76 29 74 65-2 33-31 59-74 59z m44 193c-12 42-32 55-62 55-3 0-7-1-10-1-13-4-23-15-29-31-6-17-6-34-1-54 9-35 34-60 59-60 3 0 7 0 10 1 27 8 44 50 33 90z" horiz-adv-x="1000" />
<glyph glyph-name="pinterest" unicode="&#xe84e;" d="m431 189c-26-138-58-270-153-339-30 208 43 364 76 530-57 97 7 291 128 243 149-59-129-359 57-396 195-39 274 337 154 460-174 177-508 4-467-249 10-62 74-81 26-166-112 24-145 112-141 230 7 192 173 326 339 345 210 23 407-77 434-275 31-223-94-465-319-447-61 5-86 35-134 64z" horiz-adv-x="1000" />
<glyph glyph-name="stumbleupon-with-circle" unicode="&#xe84f;" d="m500 830c-265 0-480-215-480-480s215-480 480-480 480 215 480 480-215 480-480 480z m0-369c-15 0-27-12-27-27v-158c0-62-50-113-113-113s-113 51-113 113v66h87v-66c0-15 12-27 26-27 15 0 27 12 27 27v158c0 63 51 113 113 113 62 0 113-51 113-113v-30l-52-17-34 17v30c0 15-12 27-27 27z m253-185c0-62-51-113-113-113-63 0-113 51-113 113v68l34-17 52 17v-68c0-15 12-26 27-26 14 0 26 11 26 26v66h87v-66z" horiz-adv-x="1000" />
<glyph glyph-name="stumbleupon" unicode="&#xe850;" d="m553 447l68-33 103 33v60c0 123-101 223-224 223s-224-100-224-223v-314c0-29-23-52-52-52-29 0-53 23-53 52v132h-171v-132c0-123 100-223 224-223 123 0 223 100 223 223v314c0 29 24 52 53 52 29 0 53-23 53-52v-60z m276-122v-132c0-29-24-52-53-52-29 0-52 23-52 52v134l-103-33-68 33v-134c0-123 100-223 223-223s224 100 224 223v132h-171z" horiz-adv-x="1000" />
<glyph glyph-name="picasa" unicode="&#xe851;" d="m290 759c-154-80-250-236-250-410 0-32 4-64 11-96l398 362c-43 39-154 140-159 144z m400 10c-60 27-124 41-190 41-47 0-93-8-137-22l327-298v279z m70-41v-531h174c17 49 26 101 26 152 0 152-76 294-200 379z m-687-549c34-85 93-158 169-210v363l-103-93c-35-32-64-58-66-60z m239-250c46-21 95-34 146-39h84c151 14 286 103 360 237h-590v-198z" horiz-adv-x="1000" />
</font>
</defs>
</svg>
